HIERARCHY
ROOT Hips
{
	OFFSET 0.000000 0.000000 0.000000
	CHANNELS 6 Xposition Yposition Zposition Zrotation Yrotation Xrotation 
	JOINT LeftUpLeg_virtual
	{
		OFFSET 0.000000 0.000000 0.000000
		CHANNELS 3 Zrotation Yrotation Xrotation
		JOINT LeftUpLeg
		{
			OFFSET 8.479694 -4.795517 -0.379053
			CHANNELS 3 Zrotation Yrotation Xrotation
			JOINT LeftLeg
			{
				OFFSET 0.485052 -32.551468 0.112863
				CHANNELS 3 Zrotation Yrotation Xrotation
				JOINT LeftFoot
				{
					OFFSET 0.438033 -32.635670 -3.012641
					CHANNELS 3 Zrotation Yrotation Xrotation
					JOINT LeftToeBase
					{
						OFFSET 0.970169 -13.225353 11.864223
						CHANNELS 3 Zrotation Yrotation Xrotation
						End Site
						{
							OFFSET 0.000000 0.000000 0.000000
						}
					}
				}
			}
		}
	}
	JOINT RightUpLeg_virtual
	{
		OFFSET 0.000000 0.000000 0.000000
		CHANNELS 3 Zrotation Yrotation Xrotation
		JOINT RightUpLeg
		{
			OFFSET -8.479694 -4.795517 -0.379053
			CHANNELS 3 Zrotation Yrotation Xrotation
			JOINT RightLeg
			{
				OFFSET -0.484100 -32.551483 0.112903
				CHANNELS 3 Zrotation Yrotation Xrotation
				JOINT RightFoot
				{
					OFFSET -0.438985 -32.635651 -3.012681
					CHANNELS 3 Zrotation Yrotation Xrotation
					JOINT RightToeBase
					{
						OFFSET -0.970169 -13.225354 11.864223
						CHANNELS 3 Zrotation Yrotation Xrotation
						End Site
						{
							OFFSET 0.000000 0.000000 0.000000
						}
					}
				}
			}
		}
	}
	JOINT Spine_virtual
	{
		OFFSET 0.000000 0.000000 0.000000
		CHANNELS 3 Zrotation Yrotation Xrotation
		JOINT Spine
		{
			OFFSET 0.000000 7.722015 1.166203
			CHANNELS 3 Zrotation Yrotation Xrotation
			JOINT Spine1
			{
				OFFSET 0.000000 12.024086 0.248766
				CHANNELS 3 Zrotation Yrotation Xrotation
				JOINT Spine2
				{
					OFFSET -0.000000 11.503036 -0.491240
					CHANNELS 3 Zrotation Yrotation Xrotation
					JOINT Neck_virtual
					{
						OFFSET 0.000000 0.000000 0.000000
						CHANNELS 3 Zrotation Yrotation Xrotation
						JOINT Neck
						{
							OFFSET 0.000000 18.430687 -3.123054
							CHANNELS 3 Zrotation Yrotation Xrotation
							JOINT Head
							{
								OFFSET -0.000000 9.051071 1.034021
								CHANNELS 3 Zrotation Yrotation Xrotation
								End Site
								{
									OFFSET 0.000000 0.000000 0.000000
								}
							}
						}
					}
					JOINT LeftShoulder_virtual
					{
						OFFSET 0.000000 0.000000 0.000000
						CHANNELS 3 Zrotation Yrotation Xrotation
						JOINT LeftShoulder
						{
							OFFSET 6.197824 13.665230 -4.064723
							CHANNELS 3 Zrotation Yrotation Xrotation
							JOINT LeftArm
							{
								OFFSET 7.778132 -0.187073 -1.709282
								CHANNELS 3 Zrotation Yrotation Xrotation
								JOINT LeftForeArm
								{
									OFFSET 21.954697 0.000000 -2.041093
									CHANNELS 3 Zrotation Yrotation Xrotation
									JOINT LeftHand
									{
										OFFSET 22.992908 0.000000 -0.870901
										CHANNELS 3 Zrotation Yrotation Xrotation
										End Site
										{
											OFFSET 0.000000 0.000000 0.000000
										}
									}
								}
							}
						}
					}
					JOINT RightShoulder_virtual
					{
						OFFSET 0.000000 0.000000 0.000000
						CHANNELS 3 Zrotation Yrotation Xrotation
						JOINT RightShoulder
						{
							OFFSET -6.197824 13.665230 -4.064723
							CHANNELS 3 Zrotation Yrotation Xrotation
							JOINT RightArm
							{
								OFFSET -7.778132 -0.187073 -1.709282
								CHANNELS 3 Zrotation Yrotation Xrotation
								JOINT RightForeArm
								{
									OFFSET -21.954697 0.000000 -2.041093
									CHANNELS 3 Zrotation Yrotation Xrotation
									JOINT RightHand
									{
										OFFSET -22.992908 0.000000 -0.870901
										CHANNELS 3 Zrotation Yrotation Xrotation
										End Site
										{
											OFFSET 0.000000 0.000000 0.000000
										}
									}
								}
							}
						}
					}
				}
			}
		}
	}
}
MOTION
Frames: 9
Frame Time: 0.033333
13.125914 81.126816 3.751287 179.954161 -3.335354 179.975007 -1.293881 1.628118 15.520686 3.951364 -3.718320 -24.272039 2.326555 3.563890 25.731064 1.328085 -8.197865 -11.190109 0.000000 0.000000 0.000000 2.784287 0.164418 16.258606 -5.479758 3.106032 -25.140690 0.367593 5.611871 29.884772 11.937727 3.839313 -15.520696 0.000000 0.000000 0.000000 3.608234 3.214526 5.399289 0.470287 -2.033644 -4.661482 -0.180532 -2.296549 5.458849 0.005758 -0.017306 -0.027884 -0.480846 -0.890076 6.109738 0.335376 2.807758 -5.772221 0.000000 0.000000 0.000000 1.132576 -0.215219 3.388095 -13.883341 -4.212278 1.692824 -56.547768 -10.168492 10.906600 5.294332 -24.435529 3.707690 0.000000 0.000000 0.000000 -3.341818 1.273140 2.609509 26.553709 -0.933628 5.893024 49.657316 1.892992 15.364867 -2.751193 27.551945 -3.439061 0.000000 0.000000 0.000000 
13.129386 81.131042 3.829885 179.910079 -3.567432 179.968094 -1.264577 1.585401 15.541431 3.880179 -3.726782 -24.354981 2.258314 3.413509 25.721784 1.178949 -8.347178 -11.142229 0.000000 0.000000 0.000000 2.807429 0.057275 16.288676 -5.387910 2.795632 -25.304587 0.464135 5.371195 29.849805 12.074961 4.113328 -15.914981 0.000000 0.000000 0.000000 3.545905 3.073172 5.531733 0.427644 -2.004532 -4.618125 -0.174433 -2.239901 5.465394 0.014123 0.019254 -0.025609 -0.479486 -0.868035 6.095342 0.392107 2.724577 -5.785005 0.000000 0.000000 0.000000 1.100401 -0.158931 3.437211 -13.724420 -4.251692 1.728139 -56.472544 -10.040812 11.370378 5.247746 -24.919935 3.658553 0.000000 0.000000 0.000000 -3.311341 1.174176 2.611703 26.568329 -0.877738 5.903703 49.555352 1.825009 15.422041 -2.720672 27.597827 -3.341998 0.000000 0.000000 0.000000 
13.164490 81.128044 3.917112 179.937031 -3.613992 179.953587 -1.239016 1.593968 15.618370 3.872790 -3.796252 -24.488313 2.363578 3.373554 25.706269 1.080921 -8.337422 -11.102729 0.000000 0.000000 0.000000 2.869675 0.028515 16.266435 -5.333582 2.486835 -25.487379 0.497294 5.360744 30.051029 12.020283 4.250145 -15.827147 0.000000 0.000000 0.000000 3.574097 3.069857 5.698335 0.416776 -2.004024 -4.572514 -0.166673 -2.234919 5.438773 0.020152 -0.013372 -0.032320 -0.497209 -0.860448 6.091577 0.488865 2.638501 -5.819966 0.000000 0.000000 0.000000 1.107151 -0.114716 3.348123 -13.522981 -4.354526 1.860553 -56.170598 -9.768594 12.287821 5.200003 -26.044223 3.537890 0.000000 0.000000 0.000000 -3.335803 1.358393 2.594622 26.594296 -0.799496 5.965751 49.375325 1.820128 15.533930 -2.691244 27.761565 -3.283632 0.000000 0.000000 0.000000 
13.222279 81.127319 4.017762 179.907019 -3.748897 179.926007 -1.206534 1.345400 15.625292 3.820582 -4.005454 -24.498142 2.537810 3.437619 25.664187 0.968758 -8.285769 -11.017449 0.000000 0.000000 0.000000 2.862309 -0.290589 16.215984 -5.335679 2.282021 -25.646478 0.576487 5.371502 30.238450 11.998470 4.531477 -15.710502 0.000000 0.000000 0.000000 3.601500 2.867338 5.807929 0.362629 -1.895957 -4.482240 -0.186767 -2.144864 5.405719 0.014070 -0.000387 -0.018652 -0.510312 -0.764522 6.034021 0.705709 2.438128 -5.861868 0.000000 0.000000 0.000000 1.074255 -0.077858 3.334092 -13.238340 -4.640199 1.910697 -55.542094 -9.799821 13.276021 4.944193 -27.393870 3.435779 0.000000 0.000000 0.000000 -3.332646 1.300550 2.553519 26.665484 -0.692609 5.947700 49.148440 1.843773 15.865302 -2.756499 27.908624 -3.298936 0.000000 0.000000 0.000000 
13.300741 81.136040 4.139543 179.859467 -3.730495 179.903945 -1.246588 0.954065 15.583662 3.747511 -4.113642 -24.434097 2.792382 3.604909 25.655536 0.841681 -8.156416 -10.904342 0.000000 0.000000 0.000000 2.826334 -0.632682 16.100506 -5.343615 2.111878 -25.741777 0.678670 5.417157 30.312461 11.930796 4.879735 -15.543467 0.000000 0.000000 0.000000 3.648468 2.555921 5.852064 0.302266 -1.829842 -4.358205 -0.229943 -2.103349 5.365584 -0.013400 -0.036305 -0.011053 -0.458114 -0.596678 5.958535 0.947060 2.249586 -5.902126 0.000000 0.000000 0.000000 1.126641 -0.036756 3.212820 -13.004321 -4.814493 2.017702 -54.910930 -10.245743 14.030990 4.754117 -28.712363 3.201154 0.000000 0.000000 0.000000 -3.319228 1.510437 2.465344 26.756933 -0.637917 5.938695 48.865045 2.039337 16.043901 -2.753495 28.001144 -3.223163 0.000000 0.000000 0.000000 
13.383218 81.147530 4.262316 179.898126 -3.637132 179.932974 -1.341165 0.430662 15.458909 3.662073 -3.765082 -24.366203 3.091352 3.579071 25.729109 0.662941 -8.025034 -10.926496 0.000000 0.000000 0.000000 2.795742 -1.019542 15.882136 -5.342921 2.218182 -25.743400 0.775831 5.489373 30.229120 11.779727 5.227121 -15.349332 0.000000 0.000000 0.000000 3.722228 2.187967 5.774369 0.280026 -1.674279 -4.192132 -0.219322 -1.979537 5.302868 0.017678 0.019260 -0.034177 -0.547271 -0.596850 5.927705 1.241670 2.021142 -5.964056 0.000000 0.000000 0.000000 0.982567 0.101287 3.279234 -12.826432 -5.351152 2.158648 -54.203565 -11.249587 14.329400 4.573181 -29.628240 2.834572 0.000000 0.000000 0.000000 -3.395606 1.455445 2.441338 26.866467 -0.544672 5.920952 48.631148 2.469301 16.202812 -2.756805 27.968028 -3.160241 0.000000 0.000000 0.000000 
13.467892 81.156357 4.387139 179.937850 -3.361617 179.902729 -1.227232 0.275357 15.296135 3.519346 -3.983665 -24.240823 3.342299 3.596632 25.774537 0.609464 -7.716128 -10.773654 0.000000 0.000000 0.000000 2.733801 -1.273640 15.661731 -5.313051 2.397136 -25.574395 0.848295 5.576277 30.089364 11.542788 5.550383 -15.215981 0.000000 0.000000 0.000000 3.836440 1.986800 5.679173 0.227981 -1.595141 -3.947725 -0.258780 -1.920662 5.256181 -0.012428 0.022590 -0.002583 -0.485432 -0.501337 5.809970 1.545475 1.724206 -6.056751 0.000000 0.000000 0.000000 1.002129 0.128427 3.166773 -12.686686 -5.726086 2.265193 -53.838041 -12.318602 14.135359 4.415270 -30.129156 2.400091 0.000000 0.000000 0.000000 -3.391135 1.508652 2.339399 27.008533 -0.470385 5.893359 48.470014 3.153559 16.290802 -2.744907 27.815464 -3.108627 0.000000 0.000000 0.000000 
13.587038 81.168671 4.476653 179.965922 -2.892940 179.925392 -1.285312 0.226026 15.041156 3.501936 -3.843893 -24.045367 3.623460 3.666503 25.906460 0.401769 -7.587614 -10.730441 0.000000 0.000000 0.000000 2.693254 -1.340787 15.339963 -5.229790 2.726241 -25.353061 0.889142 5.680235 29.885609 11.224850 5.823593 -15.157276 0.000000 0.000000 0.000000 3.921466 1.908294 5.452889 0.171166 -1.544090 -3.640207 -0.223416 -1.881009 5.226763 0.022428 0.046868 0.005526 -0.523085 -0.538793 5.725406 1.793579 1.465794 -6.143921 0.000000 0.000000 0.000000 0.915876 0.189213 3.105507 -12.635859 -6.072339 2.352799 -53.631014 -13.558285 13.543413 4.198166 -30.121524 2.043835 0.000000 0.000000 0.000000 -3.453471 1.550050 2.285151 27.220080 -0.370572 5.853965 48.441197 4.058322 16.296891 -2.693574 27.454487 -3.083239 0.000000 0.000000 0.000000 
13.761086 81.182205 4.535770 -179.992437 -2.416519 179.960567 -1.399050 0.300644 14.726687 3.561992 -3.621221 -23.816562 3.946786 3.621107 26.057085 0.115034 -7.575203 -10.746396 0.000000 0.000000 0.000000 2.661023 -1.355307 15.000169 -5.091379 3.162629 -25.047323 0.888728 5.777171 29.642669 10.834913 6.006581 -15.139434 0.000000 0.000000 0.000000 4.017647 1.909349 5.150822 0.078906 -1.518471 -3.287094 -0.185098 -1.861184 5.174842 0.023818 0.048436 -0.028800 -0.499510 -0.562633 5.758387 2.022638 1.192985 -6.280776 0.000000 0.000000 0.000000 0.916937 0.171051 3.104434 -12.612500 -6.433972 2.526269 -53.540716 -14.927595 12.786696 4.054481 -29.730024 1.619647 0.000000 0.000000 0.000000 -3.463463 1.540552 2.290617 27.460902 -0.330005 5.841285 48.525038 5.092374 16.216404 -2.669363 26.981353 -3.121521 0.000000 0.000000 0.000000 
